<?xml version="1.0" encoding="UTF-8" standalone="no"?>
<svg width="100px" height="100px" viewBox="0 0 100 100" version="1.1" xmlns="http://www.w3.org/2000/svg" xmlns:xlink="http://www.w3.org/1999/xlink" xmlns:sketch="http://www.bohemiancoding.com/sketch/ns">
    <!-- Generator: Sketch 3.2.2 (9983) - http://www.bohemiancoding.com/sketch -->
    <title>logo</title>
    <desc>Created with Sketch.</desc>
    <defs></defs>
    <g stroke="none" stroke-width="1" fill="none" fill-rule="evenodd" sketch:type="MSPage">
        <g sketch:type="MSArtboardGroup" transform="translate(-151.000000, -95.000000)">
            <g sketch:type="MSLayerGroup" transform="translate(151.000000, 95.000000)">
                <circle fill="#FDFDFD" sketch:type="MSShapeGroup" cx="50" cy="50" r="50"></circle>
                <path d="M45.8398438,76.4453125 C43.7682188,73.7955597 41.8772872,70.6520364 40.1669922,67.0146484 C38.4566972,63.3772605 36.9511784,59.5713089 35.6503906,55.5966797 C34.3496029,51.6220504 33.2656293,47.6354367 32.3984375,43.6367188 C31.5312457,39.6380008 30.9049498,35.9524908 30.5195312,32.5800781 L31.3144531,32.21875 L31.3144531,31.4238281 C32.2779996,30.9420549 32.952472,30.5686862 33.3378906,30.3037109 C33.7233092,30.0387357 34.0123688,29.8339851 34.2050781,29.6894531 C34.3977874,29.5449212 34.5664055,29.4244796 34.7109375,29.328125 C34.8554695,29.2317704 35.1445291,29.0631522 35.578125,28.8222656 L35.578125,27.4492188 C36.2526075,27.4492188 36.8789034,27.4251304 37.4570312,27.3769531 C38.0351591,27.3287758 38.4928369,27.3046875 38.8300781,27.3046875 C39.2154967,27.3046875 39.7093069,27.3287758 40.3115234,27.3769531 C40.91374,27.4251304 41.4075502,27.4492188 41.7929688,27.4492188 C42.419274,29.4726664 43.0937464,31.5563044 43.8164062,33.7001953 C44.5390661,35.8440862 45.2737593,37.9638567 46.0205078,40.0595703 C46.7672563,42.1552839 47.5019495,44.1907453 48.2246094,46.1660156 C48.9472692,48.1412859 49.64583,49.9960851 50.3203125,51.7304688 C50.8020857,50.429681 51.3320284,49.0084713 51.9101562,47.4667969 C52.4882841,45.9251225 53.1386683,44.4316479 53.8613281,42.9863281 C54.583988,41.5410084 55.3668578,40.2402402 56.2099609,39.0839844 C57.0530641,37.9277286 57.9804637,37.0605498 58.9921875,36.4824219 L58.9921875,35.6875 C59.9075567,35.2057268 60.6663381,34.7600932 61.2685547,34.3505859 C61.8707712,33.9410787 62.4007139,33.56771 62.8583984,33.2304688 C63.316083,32.8932275 63.7737607,32.6282562 64.2314453,32.4355469 C64.6891299,32.2428376 65.2792933,32.1464844 66.0019531,32.1464844 C66.869145,32.1464844 67.7604121,32.2428376 68.6757812,32.4355469 C69.5911504,32.6282562 70.5305941,32.8691392 71.4941406,33.1582031 L71.421875,33.1582031 C72.2408895,33.3990897 72.843097,33.5677079 73.2285156,33.6640625 C73.6139342,33.7604171 73.8066406,33.9290353 73.8066406,34.1699219 C73.8066406,34.5553405 73.1803448,35.3743427 71.9277344,36.6269531 C71.1568972,37.5423223 70.3740274,38.6022075 69.5791016,39.8066406 C68.7841757,41.0110737 68.0253942,42.311842 67.3027344,43.7089844 C66.5800745,45.1061268 65.9056021,46.563469 65.2792969,48.0810547 C64.6529917,49.5986404 64.123049,51.1041592 63.6894531,52.5976562 C63.1113252,54.5729265 62.5693385,56.5120348 62.0634766,58.4150391 C61.5576147,60.3180434 61.0517603,62.0885335 60.5458984,63.7265625 C60.0400365,65.3645915 59.5462264,66.761713 59.0644531,67.9179688 C58.5826799,69.0742245 58.0768256,69.8691385 57.546875,70.3027344 L57.546875,71.6757812 C57.1614564,71.6757812 56.8001319,71.7600903 56.4628906,71.9287109 C56.1256494,72.0973316 55.776369,72.3141263 55.4150391,72.5791016 C55.0537091,72.8440768 54.644208,73.1090482 54.1865234,73.3740234 C53.7288389,73.6389987 53.1868521,73.8678376 52.5605469,74.0605469 L52.5605469,75.1445312 L51.3320312,75.1445312 C51.139322,75.5299498 50.8623065,75.8310536 50.5009766,76.0478516 C50.1396466,76.2646495 49.7783221,76.4212235 49.4169922,76.5175781 C49.0556623,76.6139328 48.7304702,76.6741535 48.4414062,76.6982422 C48.1523423,76.7223308 47.9596359,76.734375 47.8632812,76.734375 L48.0800781,76.6621094 C47.9837235,76.7102867 47.8994144,76.7464192 47.8271484,76.7705078 C47.7548825,76.7945965 47.5983085,76.8548172 47.3574219,76.9511719 L45.8398438,76.4453125 Z" fill="#171B1F" sketch:type="MSShapeGroup"></path>
            </g>
        </g>
    </g>
</svg>